<?xml version="1.0" encoding="utf-8"?>
<!-- Generator: Adobe Illustrator 22.0.0, SVG Export Plug-In . SVG Version: 6.00 Build 0)  -->
<svg version="1.1" id="Capa_1" xmlns="http://www.w3.org/2000/svg" xmlns:xlink="http://www.w3.org/1999/xlink" x="0px" y="0px"
	 width="23px" height="23.823px" viewBox="0 0 23 23.823" style="enable-background:new 0 0 23 23.823;" xml:space="preserve">
<style type="text/css">
	.st0{fill:#FFFFFF;}
</style>
<path class="st0" d="M22.65,21.699l-5.67-5.897c1.458-1.733,2.257-3.913,2.257-6.183C19.237,4.315,14.922,0,9.618,0S0,4.315,0,9.618
	s4.315,9.618,9.618,9.618c1.991,0,3.888-0.601,5.511-1.741l5.713,5.942c0.239,0.248,0.56,0.385,0.904,0.385
	c0.326,0,0.635-0.124,0.869-0.35C23.114,22.993,23.13,22.198,22.65,21.699z M9.618,2.509c3.92,0,7.109,3.189,7.109,7.109
	s-3.189,7.109-7.109,7.109s-7.109-3.189-7.109-7.109S5.698,2.509,9.618,2.509z"/>
</svg>
