<?xml version="1.0" encoding="utf-8"?>
<!-- Generator: Adobe Illustrator 22.0.0, SVG Export Plug-In . SVG Version: 6.00 Build 0)  -->
<svg version="1.1" id="Capa_1" xmlns="http://www.w3.org/2000/svg" xmlns:xlink="http://www.w3.org/1999/xlink" x="0px" y="0px"
	 width="14.218px" height="14.218px" viewBox="0 0 14.218 14.218" style="enable-background:new 0 0 14.218 14.218;"
	 xml:space="preserve">
<style type="text/css">
	.st0{fill:#203644;}
</style>
<g>
	<g>
		<g>
			<path class="st0" d="M11.47,0H2.748C1.232,0,0,1.232,0,2.748V5.65v5.821c0,1.516,1.232,2.748,2.748,2.748h8.723
				c1.515,0,2.748-1.232,2.748-2.748V5.65V2.748C14.218,1.232,12.985,0,11.47,0z M12.259,1.638l0.314-0.001V1.95v2.098l-2.402,0.008
				l-0.008-2.41L12.259,1.638z M5.08,5.649c0.456-0.63,1.194-1.043,2.03-1.043c0.835,0,1.574,0.413,2.029,1.044
				c0.295,0.411,0.473,0.914,0.473,1.459c0,1.38-1.124,2.502-2.503,2.502c-1.38,0-2.503-1.123-2.501-2.503
				C4.608,6.563,4.784,6.06,5.08,5.649z M12.832,11.47c0,0.752-0.612,1.361-1.362,1.361H2.747c-0.752,0-1.362-0.609-1.362-1.361
				V5.65h2.122C3.324,6.1,3.221,6.593,3.221,7.108c0,2.143,1.744,3.889,3.888,3.889s3.889-1.745,3.889-3.889
				c0-0.516-0.104-1.009-0.289-1.459h2.123C12.832,5.649,12.832,11.47,12.832,11.47z"/>
		</g>
	</g>
</g>
</svg>
