<?xml version="1.0" encoding="utf-8"?>
<!-- Generator: Adobe Illustrator 22.0.0, SVG Export Plug-In . SVG Version: 6.00 Build 0)  -->
<svg version="1.1" id="Capa_1" xmlns="http://www.w3.org/2000/svg" xmlns:xlink="http://www.w3.org/1999/xlink" x="0px" y="0px"
	 width="14.022px" height="11.395px" viewBox="0 0 14.022 11.395" style="enable-background:new 0 0 14.022 11.395;"
	 xml:space="preserve">
<style type="text/css">
	.st0{fill:#FFFFFF;}
</style>
<g>
	<g>
		<path class="st0" d="M12.588,2.837c0.006,0.124,0.009,0.249,0.009,0.374c0,3.802-2.893,8.184-8.186,8.184
			c-1.625,0-3.137-0.475-4.41-1.291c0.225,0.027,0.454,0.04,0.686,0.04c1.348,0,2.589-0.46,3.573-1.232
			C3.001,8.889,1.938,8.057,1.572,6.914c0.175,0.033,0.356,0.052,0.541,0.052c0.262,0,0.517-0.034,0.758-0.1
			C1.555,6.601,0.563,5.439,0.563,4.044c0-0.012,0-0.025,0.001-0.036c0.388,0.215,0.831,0.345,1.303,0.36
			C1.095,3.852,0.587,2.971,0.587,1.973c0-0.528,0.141-1.022,0.389-1.447c1.418,1.741,3.539,2.886,5.93,3.007
			c-0.049-0.211-0.074-0.43-0.074-0.656C6.832,1.288,8.12,0,9.709,0c0.828,0,1.574,0.349,2.1,0.908
			c0.656-0.129,1.27-0.368,1.828-0.698c-0.217,0.672-0.671,1.236-1.267,1.592c0.583-0.069,1.138-0.224,1.653-0.453
			C13.638,1.925,13.151,2.432,12.588,2.837z"/>
	</g>
</g>
</svg>
