<svg id="Capa_1" enable-background="new 0 0 512 512" height="512" viewBox="0 0 512 512" width="512" xmlns="http://www.w3.org/2000/svg"><g><g><path d="m508.949 123.21c-4.57 16.7-13.88 31.17-26.34 42.01-2.36-5.5-4.99-10.9-7.86-16.16-22.63-41.34-59.57-72.68-104.03-88.25-5.67-1.99-11.4-3.7-17.2-5.13 19.44-31.5 58.03-47.89 95.49-37.63 45.52 12.47 72.41 59.64 59.94 105.16z"/></g><g><path d="m158.48 55.68c-5.8 1.43-11.54 3.14-17.2 5.13-44.45 15.57-81.4 46.91-104.02 88.23-2.88 5.27-5.51 10.67-7.87 16.17-12.46-10.84-21.76-25.29-26.34-42-12.47-45.52 14.42-92.69 59.94-105.16 37.451-10.26 76.041 6.13 95.49 37.63z"/></g><g><path d="m476.719 249.51-14.49-52.09c-3.28-11.81-7.93-23.24-13.8-33.98-19.05-34.8-50.17-61.2-87.63-74.32-17.03-5.97-34.86-9-53-9h-103.599c-18.14 0-35.97 3.03-52.99 9-37.46 13.12-68.59 39.52-87.64 74.32-5.87 10.74-10.52 22.17-13.8 33.98l-14.49 52.08c-9.06 32.54-7.54 72.15 4.17 108.7 12.4 38.67 34.62 70.03 62.58 88.3l45.61 29.79c.06.04.12.08.18.11-.81-1.9-1.56-3.85-2.23-5.83-4.56-13.36-5.58-27.85-2.95-41.91.03-.17.07-.35.11-.51l31.65-140.69c7.44-39.15 41.72-67.53 81.6-67.53s74.16 28.38 81.6 67.53l31.65 140.69c.04.16.08.34.11.51 2.63 14.06 1.61 28.55-2.95 41.92-.67 1.98-1.41 3.92-2.22 5.82.06-.04.11-.07.17-.11l45.61-29.79c27.96-18.27 50.18-49.63 62.58-88.3 11.709-36.55 13.229-76.16 4.169-108.69zm-335.508 3.78c-8.28 0-15-6.72-15-15 0-8.29 6.72-15 15-15 8.29 0 15 6.71 15 15-.001 8.28-6.711 15-15 15zm229.579 0c-8.29 0-15-6.72-15-15 0-8.29 6.71-15 15-15 8.28 0 15 6.71 15 15 0 8.28-6.72 15-15 15z"/></g><g><path d="m273.69 345.95c-.04 6.01-8.58 19.12-17.69 19.12s-17.65-13.11-17.69-19.12c1.15-.72 5.59-2.83 17.69-2.83s16.54 2.11 17.69 2.83z"/><path d="m339.92 434.46-31.59-140.41-.11-.49-.09-.5c-4.75-24.99-26.68-43.13-52.13-43.13s-47.38 18.14-52.13 43.13l-.09.5-.11.49-31.59 140.41c-1.62 8.89-.96 18.02 1.9 26.43 7.34 21.62 27.55 36.11 50.31 36.11h63.42c22.75 0 42.97-14.49 50.3-36.07 2.87-8.44 3.53-17.58 1.91-26.47zm-37.02 31.6c-28.89 14.37-64.03 14.8-93.8 0-7.42-3.69-10.45-12.69-6.76-20.11s12.69-10.44 20.11-6.75c5.92 2.94 12.17 5.05 18.55 6.34v-53.42c-19.02-7.57-32.69-28.37-32.69-46.22 0-12.21 6.67-22.29 18.29-27.66 7.47-3.45 17.09-5.12 29.4-5.12s21.93 1.67 29.4 5.12c11.62 5.37 18.29 15.45 18.29 27.66 0 17.85-13.67 38.65-32.69 46.22v53.42c6.38-1.29 12.63-3.4 18.55-6.34 7.42-3.69 16.42-.67 20.11 6.75s.66 16.42-6.76 20.11z"/></g></g></svg>